<?xml version="1.0" standalone="no"?>
<!DOCTYPE svg PUBLIC "-//W3C//DTD SVG 20010904//EN"
 "http://www.w3.org/TR/2001/REC-SVG-20010904/DTD/svg10.dtd">
<svg version="1.0" xmlns="http://www.w3.org/2000/svg"
 width="700.000000pt" height="700.000000pt" viewBox="0 0 700.000000 700.000000"
 preserveAspectRatio="xMidYMid meet">
<metadata>
Created by potrace 1.11, written by Peter Selinger 2001-2013
</metadata>
<g transform="translate(0.000000,700.000000) scale(0.100000,-0.100000)"
fill="#000000" stroke="none">
<path d="M3270 6964 c-155 -14 -334 -39 -461 -65 -1358 -272 -2436 -1350
-2708 -2708 -52 -259 -65 -399 -65 -691 0 -292 13 -432 65 -691 272 -1358
1350 -2436 2708 -2708 259 -52 399 -65 691 -65 292 0 432 13 691 65 1358 272
2436 1350 2708 2708 52 259 65 399 65 691 0 292 -13 432 -65 691 -251 1254
-1192 2278 -2424 2639 -309 90 -578 129 -920 134 -132 2 -260 2 -285 0z m565
-480 c1121 -123 2084 -873 2480 -1933 218 -583 247 -1246 81 -1853 -299 -1089
-1212 -1934 -2320 -2147 -358 -69 -794 -69 -1152 0 -1016 195 -1875 923 -2239
1898 -218 583 -247 1246 -81 1853 227 827 816 1532 1591 1904 515 247 1067
341 1640 278z"/>
</g>
</svg>
